<svg width="12" height="12" viewBox="0 0 12 12" fill="none" xmlns="http://www.w3.org/2000/svg">
<rect x="-0.5" y="0.5" width="11" height="11" rx="2.5" transform="matrix(-1 -1.74846e-07 -1.74846e-07 1 11 -8.74228e-08)" stroke="#052224"/>
<path d="M3 9.5C2.72386 9.5 2.5 9.27614 2.5 9L2.5 4.5C2.5 4.22386 2.72386 4 3 4C3.27614 4 3.5 4.22386 3.5 4.5L3.5 8.5L7.5 8.5C7.77614 8.5 8 8.72386 8 9C8 9.27614 7.77614 9.5 7.5 9.5L3 9.5ZM9 3L9.35355 3.35355L3.35355 9.35355L3 9L2.64645 8.64645L8.64645 2.64645L9 3Z" fill="#052224"/>
</svg>
